{
    "asset" : {
        "generator" : "Khronos glTF Blender I/O v1.1.45",
        "version" : "2.0"
    },
    "scene" : 0,
    "scenes" : [
        {
            "name" : "Scene",
            "nodes" : [
                0,
                3,
                7
            ]
        }
    ],
    "nodes" : [
        {
            "name" : "Yup2Zup.001",
            "rotation" : [
                1,
                0,
                0,
                -1.3435884227419592e-07
            ]
        },
        {
            "name" : "Node.002",
            "translation" : [
                2.2199699878692627,
                8.343330383300781,
                1.0294334888458252
            ]
        },
        {
            "children" : [
                1
            ],
            "name" : "Node.001",
            "translation" : [
                -2.2199699878692627,
                -8.343330383300781,
                -1.0294334888458252
            ]
        },
        {
            "children" : [
                2
            ],
            "name" : "Node",
            "rotation" : [
                0.7071068286895752,
                0,
                0,
                0.7071067094802856
            ]
        },
        {
            "mesh" : 0,
            "name" : "node-0"
        },
        {
            "children" : [
                4
            ],
            "name" : "Node.005",
            "translation" : [
                -0.027089638635516167,
                -0.3149696886539459,
                24.057878494262695
            ]
        },
        {
            "children" : [
                5
            ],
            "name" : "Node.004",
            "rotation" : [
                -0.7071068286895752,
                0,
                0,
                0.7071067094802856
            ],
            "translation" : [
                0.027089638635516167,
                0.3149696886539459,
                -24.057878494262695
            ]
        },
        {
            "children" : [
                6
            ],
            "name" : "Node.003",
            "rotation" : [
                1,
                0,
                0,
                -1.3435885648505064e-07
            ]
        }
    ],
    "materials" : [
        {
            "doubleSided" : true,
            "emissiveFactor" : [
                0,
                0,
                0
            ],
            "name" : "Ambulance_01:blinn3SG",
            "pbrMetallicRoughness" : {
                "baseColorFactor" : [
                    0.009999999776482582,
                    0.009999999776482582,
                    0.009999999776482582,
                    1
                ],
                "metallicFactor" : 0,
                "roughnessFactor" : 0.9998170137405396
            }
        },
        {
            "doubleSided" : true,
            "emissiveFactor" : [
                0,
                0,
                0
            ],
            "name" : "blinn11SG",
            "pbrMetallicRoughness" : {
                "baseColorFactor" : [
                    0,
                    0.33000001311302185,
                    0.7799999713897705,
                    1
                ],
                "metallicFactor" : 0,
                "roughnessFactor" : 0.9699476361274719
            }
        },
        {
            "doubleSided" : true,
            "emissiveFactor" : [
                0,
                0,
                0
            ],
            "name" : "Ambulance_01:blinn6SG",
            "pbrMetallicRoughness" : {
                "baseColorFactor" : [
                    0.3400000035762787,
                    0.3400000035762787,
                    0.3400000035762787,
                    1
                ],
                "metallicFactor" : 0,
                "roughnessFactor" : 0.9998170137405396
            }
        }
    ],
    "meshes" : [
        {
            "name" : "buffer-0-mesh-0",
            "primitives" : [
                {
                    "attributes" : {
                        "POSITION" : 0,
                        "NORMAL" : 1,
                        "TEXCOORD_0" : 2
                    },
                    "indices" : 3,
                    "material" : 0
                },
                {
                    "attributes" : {
                        "POSITION" : 4,
                        "NORMAL" : 5,
                        "TEXCOORD_0" : 6
                    },
                    "indices" : 7,
                    "material" : 1
                },
                {
                    "attributes" : {
                        "POSITION" : 8,
                        "NORMAL" : 9,
                        "TEXCOORD_0" : 10
                    },
                    "indices" : 7,
                    "material" : 2
                }
            ]
        }
    ],
    "accessors" : [
        {
            "bufferView" : 0,
            "componentType" : 5126,
            "count" : 2508,
            "max" : [
                42.815834045410156,
                63.064117431640625,
                -0.11100400239229202
            ],
            "min" : [
                -42.815834045410156,
                -63.064117431640625,
                -85.58546447753906
            ],
            "type" : "VEC3"
        },
        {
            "bufferView" : 1,
            "componentType" : 5126,
            "count" : 2508,
            "type" : "VEC3"
        },
        {
            "bufferView" : 2,
            "componentType" : 5126,
            "count" : 2508,
            "type" : "VEC2"
        },
        {
            "bufferView" : 3,
            "componentType" : 5123,
            "count" : 2508,
            "type" : "SCALAR"
        },
        {
            "bufferView" : 4,
            "componentType" : 5126,
            "count" : 6,
            "max" : [
                -37.943702697753906,
                55.041053771972656,
                -14.925783157348633
            ],
            "min" : [
                -37.943702697753906,
                -55.041053771972656,
                -78.61723327636719
            ],
            "type" : "VEC3"
        },
        {
            "bufferView" : 5,
            "componentType" : 5126,
            "count" : 6,
            "type" : "VEC3"
        },
        {
            "bufferView" : 6,
            "componentType" : 5126,
            "count" : 6,
            "type" : "VEC2"
        },
        {
            "bufferView" : 7,
            "componentType" : 5123,
            "count" : 6,
            "type" : "SCALAR"
        },
        {
            "bufferView" : 8,
            "componentType" : 5126,
            "count" : 6,
            "max" : [
                8.810478210449219,
                57.238529205322266,
                -5.508963108062744
            ],
            "min" : [
                -29.267860412597656,
                -57.23854064941406,
                -5.508963108062744
            ],
            "type" : "VEC3"
        },
        {
            "bufferView" : 9,
            "componentType" : 5126,
            "count" : 6,
            "type" : "VEC3"
        },
        {
            "bufferView" : 10,
            "componentType" : 5126,
            "count" : 6,
            "type" : "VEC2"
        }
    ],
    "bufferViews" : [
        {
            "buffer" : 0,
            "byteLength" : 30096,
            "byteOffset" : 0
        },
        {
            "buffer" : 0,
            "byteLength" : 30096,
            "byteOffset" : 30096
        },
        {
            "buffer" : 0,
            "byteLength" : 20064,
            "byteOffset" : 60192
        },
        {
            "buffer" : 0,
            "byteLength" : 5016,
            "byteOffset" : 80256
        },
        {
            "buffer" : 0,
            "byteLength" : 72,
            "byteOffset" : 85272
        },
        {
            "buffer" : 0,
            "byteLength" : 72,
            "byteOffset" : 85344
        },
        {
            "buffer" : 0,
            "byteLength" : 48,
            "byteOffset" : 85416
        },
        {
            "buffer" : 0,
            "byteLength" : 12,
            "byteOffset" : 85464
        },
        {
            "buffer" : 0,
            "byteLength" : 72,
            "byteOffset" : 85476
        },
        {
            "buffer" : 0,
            "byteLength" : 72,
            "byteOffset" : 85548
        },
        {
            "buffer" : 0,
            "byteLength" : 48,
            "byteOffset" : 85620
        }
    ],
    "buffers" : [
        {
            "byteLength" : 85668,
            "uri" : "data:application/octet-stream;base64,"
        }
    ]
}
