{
    "asset" : {
        "generator" : "Khronos glTF Blender I/O v1.1.45",
        "version" : "2.0"
    },
    "scene" : 0,
    "scenes" : [
        {
            "name" : "Scene",
            "nodes" : [
                0,
                3,
                7
            ]
        }
    ],
    "nodes" : [
        {
            "name" : "Yup2Zup",
            "rotation" : [
                0.7071067690849304,
                0,
                0,
                0.7071067690849304
            ]
        },
        {
            "name" : "Node.002",
            "translation" : [
                7.141472816467285,
                -13.055192947387695,
                104.41694641113281
            ]
        },
        {
            "children" : [
                1
            ],
            "name" : "Node.001",
            "translation" : [
                -7.141472816467285,
                13.055192947387695,
                -104.41694641113281
            ]
        },
        {
            "children" : [
                2
            ],
            "name" : "Node"
        },
        {
            "mesh" : 0,
            "name" : "node-0"
        },
        {
            "children" : [
                4
            ],
            "name" : "Node.005",
            "translation" : [
                -50.0251579284668,
                -0.6715304851531982,
                -9.799426078796387
            ]
        },
        {
            "children" : [
                5
            ],
            "name" : "Node.004",
            "translation" : [
                50.0251579284668,
                0.6715304851531982,
                9.799426078796387
            ]
        },
        {
            "children" : [
                6
            ],
            "name" : "Node.003",
            "rotation" : [
                0.7071068286895752,
                0,
                0,
                0.7071067094802856
            ]
        }
    ],
    "materials" : [
        {
            "doubleSided" : true,
            "emissiveFactor" : [
                0,
                0,
                0
            ],
            "name" : "default.001",
            "pbrMetallicRoughness" : {
                "baseColorFactor" : [
                    1,
                    1,
                    1,
                    1
                ],
                "metallicFactor" : 0,
                "roughnessFactor" : 0.9699476361274719
            }
        }
    ],
    "meshes" : [
        {
            "name" : "buffer-0-mesh-0",
            "primitives" : [
                {
                    "attributes" : {
                        "POSITION" : 0,
                        "NORMAL" : 1,
                        "TEXCOORD_0" : 2
                    },
                    "indices" : 3,
                    "material" : 0
                }
            ]
        }
    ],
    "accessors" : [
        {
            "bufferView" : 0,
            "componentType" : 5126,
            "count" : 81708,
            "max" : [
                157.53021240234375,
                61.767887115478516,
                104.9874496459961
            ],
            "min" : [
                -111.08199310302734,
                -61.767887115478516,
                -83.70890045166016
            ],
            "type" : "VEC3"
        },
        {
            "bufferView" : 1,
            "componentType" : 5126,
            "count" : 81708,
            "type" : "VEC3"
        },
        {
            "bufferView" : 2,
            "componentType" : 5126,
            "count" : 81708,
            "type" : "VEC2"
        },
        {
            "bufferView" : 3,
            "componentType" : 5125,
            "count" : 81708,
            "type" : "SCALAR"
        }
    ],
    "bufferViews" : [
        {
            "buffer" : 0,
            "byteLength" : 980496,
            "byteOffset" : 0
        },
        {
            "buffer" : 0,
            "byteLength" : 980496,
            "byteOffset" : 980496
        },
        {
            "buffer" : 0,
            "byteLength" : 653664,
            "byteOffset" : 1960992
        },
        {
            "buffer" : 0,
            "byteLength" : 326832,
            "byteOffset" : 2614656
        }
    ],
    "buffers" : [
        {
            "byteLength" : 2941488,
            "uri" : "data:application/octet-stream;base64,"
        }
    ]
}
