{
    "asset" : {
        "generator" : "Khronos glTF Blender I/O v1.1.45",
        "version" : "2.0"
    },
    "scene" : 0,
    "scenes" : [
        {
            "name" : "Scene",
            "nodes" : [
                3
            ]
        }
    ],
    "nodes" : [
        {
            "mesh" : 0,
            "name" : "node-0"
        },
        {
            "children" : [
                0
            ],
            "name" : "Node.002",
            "translation" : [
                0.0032524506095796824,
                0.9849377274513245,
                1.0750839710235596
            ]
        },
        {
            "children" : [
                1
            ],
            "name" : "Node.001",
            "translation" : [
                -0.0032524506095796824,
                -0.9849377274513245,
                -1.0750839710235596
            ]
        },
        {
            "children" : [
                2
            ],
            "name" : "Node",
            "rotation" : [
                0.7071068286895752,
                0,
                0,
                0.7071067094802856
            ]
        }
    ],
    "materials" : [
        {
            "doubleSided" : true,
            "emissiveFactor" : [
                0,
                0,
                0
            ],
            "name" : "0.ReflectiveMaterial",
            "pbrMetallicRoughness" : {
                "baseColorFactor" : [
                    1,
                    1,
                    1,
                    1
                ],
                "metallicFactor" : 0,
                "roughnessFactor" : 0.01629643887281418
            }
        },
        {
            "doubleSided" : true,
            "emissiveFactor" : [
                0,
                0,
                0
            ],
            "name" : "1.ReflectiveMaterial",
            "pbrMetallicRoughness" : {
                "baseColorFactor" : [
                    0.7529412508010864,
                    0.7490196228027344,
                    0.7529412508010864,
                    1
                ],
                "metallicFactor" : 0,
                "roughnessFactor" : 0.01629643887281418
            }
        }
    ],
    "meshes" : [
        {
            "name" : "buffer-0-mesh-0",
            "primitives" : [
                {
                    "attributes" : {
                        "POSITION" : 0,
                        "NORMAL" : 1,
                        "TEXCOORD_0" : 2
                    },
                    "indices" : 3,
                    "material" : 0
                },
                {
                    "attributes" : {
                        "POSITION" : 4,
                        "NORMAL" : 5,
                        "TEXCOORD_0" : 6
                    },
                    "indices" : 7,
                    "material" : 1
                }
            ]
        }
    ],
    "accessors" : [
        {
            "bufferView" : 0,
            "componentType" : 5126,
            "count" : 20774,
            "max" : [
                0.3483506441116333,
                -0.5251926183700562,
                -0.3740532100200653
            ],
            "min" : [
                -0.32704079151153564,
                -1.35068941116333,
                -1.5859990119934082
            ],
            "type" : "VEC3"
        },
        {
            "bufferView" : 1,
            "componentType" : 5126,
            "count" : 20774,
            "type" : "VEC3"
        },
        {
            "bufferView" : 2,
            "componentType" : 5126,
            "count" : 20774,
            "type" : "VEC2"
        },
        {
            "bufferView" : 3,
            "componentType" : 5123,
            "count" : 82998,
            "type" : "SCALAR"
        },
        {
            "bufferView" : 4,
            "componentType" : 5126,
            "count" : 144,
            "max" : [
                -0.2989835739135742,
                -1.1313514709472656,
                -1.3021435737609863
            ],
            "min" : [
                -0.3435828685760498,
                -1.2497210502624512,
                -1.3658500909805298
            ],
            "type" : "VEC3"
        },
        {
            "bufferView" : 5,
            "componentType" : 5126,
            "count" : 144,
            "type" : "VEC3"
        },
        {
            "bufferView" : 6,
            "componentType" : 5126,
            "count" : 144,
            "type" : "VEC2"
        },
        {
            "bufferView" : 7,
            "componentType" : 5123,
            "count" : 216,
            "type" : "SCALAR"
        }
    ],
    "bufferViews" : [
        {
            "buffer" : 0,
            "byteLength" : 249288,
            "byteOffset" : 0
        },
        {
            "buffer" : 0,
            "byteLength" : 249288,
            "byteOffset" : 249288
        },
        {
            "buffer" : 0,
            "byteLength" : 166192,
            "byteOffset" : 498576
        },
        {
            "buffer" : 0,
            "byteLength" : 165996,
            "byteOffset" : 664768
        },
        {
            "buffer" : 0,
            "byteLength" : 1728,
            "byteOffset" : 830764
        },
        {
            "buffer" : 0,
            "byteLength" : 1728,
            "byteOffset" : 832492
        },
        {
            "buffer" : 0,
            "byteLength" : 1152,
            "byteOffset" : 834220
        },
        {
            "buffer" : 0,
            "byteLength" : 432,
            "byteOffset" : 835372
        }
    ],
    "buffers" : [
        {
            "byteLength" : 835804,
            "uri" : "data:application/octet-stream;base64,"
        }
    ]
}
