{
    "asset" : {
        "generator" : "Khronos glTF Blender I/O v1.1.45",
        "version" : "2.0"
    },
    "scene" : 0,
    "scenes" : [
        {
            "name" : "Scene",
            "nodes" : [
                3
            ]
        }
    ],
    "nodes" : [
        {
            "mesh" : 0,
            "name" : "node_MeshObject1202940672-PolyPaper21"
        },
        {
            "children" : [
                0
            ],
            "name" : "Node.002",
            "translation" : [
                -0.5164583325386047,
                -1.8901293277740479,
                0.931776225566864
            ]
        },
        {
            "children" : [
                1
            ],
            "name" : "Node.001",
            "translation" : [
                -0.0011629462242126465,
                0.0043794866651296616,
                -0.12638160586357117
            ]
        },
        {
            "children" : [
                2
            ],
            "name" : "Node",
            "rotation" : [
                0.7071068286895752,
                0,
                0,
                0.7071067094802856
            ]
        }
    ],
    "materials" : [
        {
            "emissiveFactor" : [
                0,
                0,
                0
            ],
            "name" : "BlocksPaper_COLOR_0",
            "pbrMetallicRoughness" : {
                "metallicFactor" : 0,
                "roughnessFactor" : 0.6000000238418579
            }
        }
    ],
    "meshes" : [
        {
            "name" : "mesh_m0-PolyPaper21_-266224",
            "primitives" : [
                {
                    "attributes" : {
                        "POSITION" : 0,
                        "NORMAL" : 1,
                        "COLOR_0" : 2
                    },
                    "indices" : 3,
                    "material" : 0
                }
            ]
        }
    ],
    "accessors" : [
        {
            "bufferView" : 0,
            "componentType" : 5126,
            "count" : 852,
            "max" : [
                0.6704870462417603,
                2.0630991458892822,
                -0.8365768790245056
            ],
            "min" : [
                0.3760507106781006,
                1.7159860134124756,
                -1.0329643487930298
            ],
            "type" : "VEC3"
        },
        {
            "bufferView" : 1,
            "componentType" : 5126,
            "count" : 852,
            "type" : "VEC3"
        },
        {
            "bufferView" : 2,
            "componentType" : 5126,
            "count" : 852,
            "type" : "VEC4"
        },
        {
            "bufferView" : 3,
            "componentType" : 5123,
            "count" : 864,
            "type" : "SCALAR"
        }
    ],
    "bufferViews" : [
        {
            "buffer" : 0,
            "byteLength" : 10224,
            "byteOffset" : 0
        },
        {
            "buffer" : 0,
            "byteLength" : 10224,
            "byteOffset" : 10224
        },
        {
            "buffer" : 0,
            "byteLength" : 13632,
            "byteOffset" : 20448
        },
        {
            "buffer" : 0,
            "byteLength" : 1728,
            "byteOffset" : 34080
        }
    ],
    "buffers" : [
        {
            "byteLength" : 35808,
            "uri" : "data:application/octet-stream;base64,"
        }
    ]
}
