{
    "asset" : {
        "generator" : "Khronos glTF Blender I/O v1.1.45",
        "version" : "2.0"
    },
    "scene" : 0,
    "scenes" : [
        {
            "name" : "Scene",
            "nodes" : [
                3
            ]
        }
    ],
    "nodes" : [
        {
            "mesh" : 0,
            "name" : "node_MeshObject-688171328-PolyPaper15"
        },
        {
            "children" : [
                0
            ],
            "name" : "Node.002",
            "translation" : [
                -0.22581784427165985,
                0.37146592140197754,
                1.0183720588684082
            ]
        },
        {
            "children" : [
                1
            ],
            "name" : "Node.001",
            "translation" : [
                0.22581784427165985,
                -0.37146592140197754,
                -1.0183720588684082
            ]
        },
        {
            "children" : [
                2
            ],
            "name" : "Node",
            "rotation" : [
                0.7071068286895752,
                0,
                0,
                0.7071067094802856
            ]
        }
    ],
    "materials" : [
        {
            "emissiveFactor" : [
                0,
                0,
                0
            ],
            "name" : "BlocksPaper_COLOR_0",
            "pbrMetallicRoughness" : {
                "metallicFactor" : 0,
                "roughnessFactor" : 0.6000000238418579
            }
        }
    ],
    "meshes" : [
        {
            "name" : "mesh_m0-PolyPaper15_-71144",
            "primitives" : [
                {
                    "attributes" : {
                        "POSITION" : 0,
                        "NORMAL" : 1,
                        "COLOR_0" : 2
                    },
                    "indices" : 3,
                    "material" : 0
                }
            ]
        }
    ],
    "accessors" : [
        {
            "bufferView" : 0,
            "componentType" : 5126,
            "count" : 5538,
            "max" : [
                0.6599640250205994,
                0.010033599101006985,
                -0.30996882915496826
            ],
            "min" : [
                -0.19999036192893982,
                -0.7900044918060303,
                -1.6374664306640625
            ],
            "type" : "VEC3"
        },
        {
            "bufferView" : 1,
            "componentType" : 5126,
            "count" : 5538,
            "type" : "VEC3"
        },
        {
            "bufferView" : 2,
            "componentType" : 5126,
            "count" : 5538,
            "type" : "VEC4"
        },
        {
            "bufferView" : 3,
            "componentType" : 5123,
            "count" : 5538,
            "type" : "SCALAR"
        }
    ],
    "bufferViews" : [
        {
            "buffer" : 0,
            "byteLength" : 66456,
            "byteOffset" : 0
        },
        {
            "buffer" : 0,
            "byteLength" : 66456,
            "byteOffset" : 66456
        },
        {
            "buffer" : 0,
            "byteLength" : 88608,
            "byteOffset" : 132912
        },
        {
            "buffer" : 0,
            "byteLength" : 11076,
            "byteOffset" : 221520
        }
    ],
    "buffers" : [
        {
            "byteLength" : 232596,
            "uri" : "data:application/octet-stream;base64,"
        }
    ]
}
