{
    "asset" : {
        "generator" : "Khronos glTF Blender I/O v1.1.45",
        "version" : "2.0"
    },
    "scene" : 0,
    "scenes" : [
        {
            "name" : "Scene",
            "nodes" : [
                3
            ]
        }
    ],
    "nodes" : [
        {
            "mesh" : 0,
            "name" : "node_MeshObject634761920-PolyPaper20",
            "translation" : [
                0,
                0.6207506656646729,
                0
            ]
        },
        {
            "children" : [
                0
            ],
            "name" : "Node.002",
            "translation" : [
                0.8785464763641357,
                0.9677173495292664,
                -1.4357715845108032
            ]
        },
        {
            "children" : [
                1
            ],
            "name" : "Node.001",
            "translation" : [
                -0.8785464763641357,
                -0.9677173495292664,
                1.4357715845108032
            ]
        },
        {
            "children" : [
                2
            ],
            "name" : "Node",
            "rotation" : [
                0.7071068286895752,
                0,
                0,
                0.7071067094802856
            ],
            "translation" : [
                0.8726608753204346,
                1.4765411615371704,
                0.3446767330169678
            ]
        }
    ],
    "materials" : [
        {
            "emissiveFactor" : [
                0,
                0,
                0
            ],
            "name" : "BlocksPaper_COLOR_0",
            "pbrMetallicRoughness" : {
                "metallicFactor" : 0,
                "roughnessFactor" : 0.6000000238418579
            }
        }
    ],
    "meshes" : [
        {
            "name" : "mesh_m0-PolyPaper20_-294962",
            "primitives" : [
                {
                    "attributes" : {
                        "POSITION" : 0,
                        "NORMAL" : 1,
                        "COLOR_0" : 2
                    },
                    "indices" : 3,
                    "material" : 0
                }
            ]
        }
    ],
    "accessors" : [
        {
            "bufferView" : 0,
            "componentType" : 5126,
            "count" : 2148,
            "max" : [
                -0.09176715463399887,
                -0.6476417779922485,
                1.7058863639831543
            ],
            "min" : [
                -1.6600093841552734,
                -1.2911481857299805,
                1.1930421590805054
            ],
            "type" : "VEC3"
        },
        {
            "bufferView" : 1,
            "componentType" : 5126,
            "count" : 2148,
            "type" : "VEC3"
        },
        {
            "bufferView" : 2,
            "componentType" : 5126,
            "count" : 2148,
            "type" : "VEC4"
        },
        {
            "bufferView" : 3,
            "componentType" : 5123,
            "count" : 2148,
            "type" : "SCALAR"
        }
    ],
    "bufferViews" : [
        {
            "buffer" : 0,
            "byteLength" : 25776,
            "byteOffset" : 0
        },
        {
            "buffer" : 0,
            "byteLength" : 25776,
            "byteOffset" : 25776
        },
        {
            "buffer" : 0,
            "byteLength" : 34368,
            "byteOffset" : 51552
        },
        {
            "buffer" : 0,
            "byteLength" : 4296,
            "byteOffset" : 85920
        }
    ],
    "buffers" : [
        {
            "byteLength" : 90216,
            "uri" : "data:application/octet-stream;base64,"
        }
    ]
}
