{
    "asset" : {
        "generator" : "Khronos glTF Blender I/O v1.1.45",
        "version" : "2.0"
    },
    "scene" : 0,
    "scenes" : [
        {
            "name" : "Scene",
            "nodes" : [
                4,
                5
            ]
        }
    ],
    "nodes" : [
        {
            "mesh" : 0,
            "name" : "node_MeshObject-425275392-PolyPaper17"
        },
        {
            "mesh" : 1,
            "name" : "node_MeshObject146803712-PolyGlass24"
        },
        {
            "children" : [
                0,
                1
            ],
            "name" : "Node.002",
            "translation" : [
                -0.07947985827922821,
                0.21706978976726532,
                0.9114385843276978
            ]
        },
        {
            "children" : [
                2
            ],
            "name" : "Node.001",
            "translation" : [
                0.07947985827922821,
                -0.21706978976726532,
                -0.9114385843276978
            ]
        },
        {
            "children" : [
                3
            ],
            "name" : "Node",
            "rotation" : [
                0.7071068286895752,
                0,
                0,
                0.7071067094802856
            ]
        },
        {
            "name" : "headLight",
            "translation" : [
                -0.38274991512298584,
                0.19137495756149292,
                -0.19137495756149292
            ]
        }
    ],
    "materials" : [
        {
            "emissiveFactor" : [
                0,
                0,
                0
            ],
            "name" : "BlocksPaper_COLOR_0",
            "pbrMetallicRoughness" : {
                "metallicFactor" : 0,
                "roughnessFactor" : 0.6000000238418579
            }
        },
        {
            "alphaMode" : "BLEND",
            "emissiveFactor" : [
                0,
                0,
                0
            ],
            "name" : "BlocksGlass_COLOR_0",
            "pbrMetallicRoughness" : {
                "metallicFactor" : 1,
                "roughnessFactor" : 0.4000000059604645
            }
        }
    ],
    "meshes" : [
        {
            "name" : "mesh_m0-PolyPaper17_-46282",
            "primitives" : [
                {
                    "attributes" : {
                        "POSITION" : 0,
                        "NORMAL" : 1,
                        "COLOR_0" : 2
                    },
                    "indices" : 3,
                    "material" : 0
                }
            ]
        },
        {
            "name" : "mesh_m1-PolyGlass24_-46288",
            "primitives" : [
                {
                    "attributes" : {
                        "POSITION" : 4,
                        "NORMAL" : 5,
                        "COLOR_0" : 6
                    },
                    "indices" : 7,
                    "material" : 1
                }
            ]
        }
    ],
    "accessors" : [
        {
            "bufferView" : 0,
            "componentType" : 5126,
            "count" : 5562,
            "max" : [
                0.3918134570121765,
                -0.18264083564281464,
                -0.78009033203125
            ],
            "min" : [
                -0.22996628284454346,
                -0.25815093517303467,
                -1.0491316318511963
            ],
            "type" : "VEC3"
        },
        {
            "bufferView" : 1,
            "componentType" : 5126,
            "count" : 5562,
            "type" : "VEC3"
        },
        {
            "bufferView" : 2,
            "componentType" : 5126,
            "count" : 5562,
            "type" : "VEC4"
        },
        {
            "bufferView" : 3,
            "componentType" : 5123,
            "count" : 5562,
            "type" : "SCALAR"
        },
        {
            "bufferView" : 4,
            "componentType" : 5126,
            "count" : 36,
            "max" : [
                0.27612602710723877,
                -0.19481268525123596,
                -0.8068737983703613
            ],
            "min" : [
                -0.10027745366096497,
                -0.19758136570453644,
                -1.017148494720459
            ],
            "type" : "VEC3"
        },
        {
            "bufferView" : 5,
            "componentType" : 5126,
            "count" : 36,
            "type" : "VEC3"
        },
        {
            "bufferView" : 6,
            "componentType" : 5126,
            "count" : 36,
            "type" : "VEC4"
        },
        {
            "bufferView" : 7,
            "componentType" : 5123,
            "count" : 36,
            "type" : "SCALAR"
        }
    ],
    "bufferViews" : [
        {
            "buffer" : 0,
            "byteLength" : 66744,
            "byteOffset" : 0
        },
        {
            "buffer" : 0,
            "byteLength" : 66744,
            "byteOffset" : 66744
        },
        {
            "buffer" : 0,
            "byteLength" : 88992,
            "byteOffset" : 133488
        },
        {
            "buffer" : 0,
            "byteLength" : 11124,
            "byteOffset" : 222480
        },
        {
            "buffer" : 0,
            "byteLength" : 432,
            "byteOffset" : 233604
        },
        {
            "buffer" : 0,
            "byteLength" : 432,
            "byteOffset" : 234036
        },
        {
            "buffer" : 0,
            "byteLength" : 576,
            "byteOffset" : 234468
        },
        {
            "buffer" : 0,
            "byteLength" : 72,
            "byteOffset" : 235044
        }
    ],
    "buffers" : [
        {
            "byteLength" : 235116,
            "uri" : "data:application/octet-stream;base64,"
        }
    ]
}
